<svg width="68" height="64" viewBox="0 0 68 64" fill="none" xmlns="http://www.w3.org/2000/svg">
<path d="M47.4367 41.0581L45.7178 42.7636C45.7178 42.7636 41.6265 46.8144 30.4633 35.7536C19.3 24.6928 23.3913 20.642 23.3913 20.642L24.4717 19.5653C27.1426 16.9224 27.3957 12.6758 25.0648 9.57365L20.3049 3.2376C17.4187 -0.602435 11.8465 -1.11067 8.54096 2.16465L2.60988 8.03764C0.974117 9.664 -0.121432 11.7647 0.0107893 14.0989C0.350787 20.0735 3.06321 32.9225 18.1893 47.9137C34.2335 63.8084 49.2878 64.4409 55.4418 63.8687C57.3911 63.688 59.0835 62.7016 60.4473 61.3463L65.8117 56.0305C69.4383 52.4427 68.4183 46.2874 63.7793 43.7763L56.5637 39.8647C53.5189 38.2195 49.8167 38.7014 47.4367 41.0581Z" fill="white"/>
</svg>
