<svg width="153" height="200" viewBox="0 0 153 200" fill="none" xmlns="http://www.w3.org/2000/svg">
<path d="M56.0901 4.71255e-06C65.4311 3.90924 73.4005 10.4549 80.3551 17.7128C87.8096 25.6373 93.7794 34.918 98.09 44.9032C102.514 54.8657 104.878 65.6919 105.651 76.5559C105.886 79.2 105.742 81.9273 106.469 84.5032C106.923 86.1775 108.355 87.7003 110.166 87.723C112.113 87.92 113.901 86.8897 115.317 85.6396C117.847 83.3895 119.332 80.1849 120.317 76.9878C121.954 71.4042 122.143 65.5176 121.802 59.7674C121.696 57.8355 121.196 55.9415 121.287 54.0096C135.59 68.8738 145.681 87.7003 150.317 107.784C151.711 113.883 152.62 120.111 152.878 126.384C152.938 130.763 153.022 135.164 152.446 139.543C151.219 149.294 147.976 158.809 142.779 167.165C133.954 181.446 119.931 192.416 103.976 197.576C100.431 198.644 96.8021 199.636 93.09 199.894C94.5067 198.689 96.1582 197.848 97.5976 196.689C104.151 191.75 109.628 185.052 112.007 177.105C114.241 169.696 114.052 161.749 112.37 154.256C111.492 150.301 109.901 146.506 107.673 143.157C104.173 137.679 99.2718 133.316 94.7188 128.762C92.1431 126.164 89.6508 123.482 87.378 120.626C83.575 115.754 80.552 110.148 79.3702 104.027C78.6808 100.89 78.6355 97.6931 78.8097 94.5112C75.2643 97.9658 72.1508 101.837 69.4235 105.959C65.6432 111.731 62.7642 118.201 61.7187 125.073C60.9384 129.52 61.3098 134.051 61.5219 138.513C61.7795 140.899 61.9538 143.324 61.7341 145.756C61.6053 147.256 60.1052 148.589 58.5825 148.24C56.6658 147.771 55.2263 146.309 54.0672 144.809C51.1505 140.77 49.8399 135.785 49.5596 130.846C49.302 131.066 49.0447 131.255 48.8553 131.513C41.7038 140.445 38.6506 152.112 38.8476 163.408C38.9082 174.681 44.0445 185.742 52.4384 193.212C55.1884 195.788 58.3248 197.871 61.4157 200C50.7642 198.818 40.6053 194.651 31.7341 188.704C22.6129 182.643 14.6429 174.681 9.10507 165.188C2.85507 154.619 -0.387299 142.271 0.0369436 129.99C0.362701 118.974 4.35513 108.3 10.3021 99.0871C17.2642 88.2003 26.3021 78.8969 34.9612 69.389C42.4991 61.0553 49.1735 51.7747 53.3629 41.297C57.8705 30.2133 59.2643 17.8643 57.1809 6.07597C56.9234 4.03801 56.4083 2.03796 56.0901 4.71255e-06Z" fill="white"/>
</svg>
