<svg width="120" height="120" viewBox="0 0 120 120" fill="none" xmlns="http://www.w3.org/2000/svg">
<path d="M75.4801 46.4127C79.4162 48.4255 84.2415 46.8679 86.2622 42.9282C88.2723 38.9884 86.7095 34.162 82.7734 32.1492C78.8373 30.1338 74.0066 31.6941 71.9912 35.6338C69.9811 39.5736 71.5387 44.4 75.4801 46.4127Z" fill="white"/>
<path d="M98.8739 44.1519C97.3903 42.6977 95.005 42.7186 93.5481 44.2021L89.311 48.5171C87.2725 50.5919 84.4389 51.5999 81.5518 51.2717C80.2017 51.118 78.8996 50.7306 77.6883 50.1249L71.3059 46.9332C70.0945 46.327 69.0112 45.5202 68.0774 44.5302C66.0762 42.4138 65.185 39.5471 65.6226 36.6687L66.5405 30.6983C66.8553 28.6417 65.4465 26.7174 63.3866 26.4041C61.3268 26.0759 59.4057 27.4976 59.0908 29.5579L58.1783 35.5278C57.3832 40.7174 58.9948 45.8836 62.5968 49.7023C63.0344 50.1665 63.536 50.5508 64.0163 50.9643L57.4365 64.1047C57.3031 64.3704 57.1964 64.6452 57.1217 64.9318L54.811 73.5415L43.0068 72.7432C40.6001 72.6071 38.4869 74.4103 38.3268 76.8336C38.1614 79.2541 39.9917 81.3497 42.4145 81.5152L57.8207 82.5526C57.9221 82.5584 58.0235 82.5616 58.1196 82.5616C60.094 82.5616 61.8444 81.2371 62.3674 79.3075L64.107 72.8201L71.4339 81.8225L69.2727 92.545C68.7924 94.9245 70.3346 97.2442 72.7147 97.7234C73.0029 97.7821 73.2964 97.8088 73.5846 97.8088C75.6338 97.8088 77.4695 96.3695 77.8857 94.283L80.4579 81.5242C80.7194 80.2387 80.3885 78.9025 79.5614 77.8827L73.0722 69.9149L78.841 58.3798C79.46 58.5127 80.0737 58.684 80.7087 58.7581C81.3544 58.8318 82.0001 58.8675 82.6404 58.8675C87.1657 58.8675 91.4722 57.0734 94.6848 53.7958L98.9219 49.4808C100.379 47.9941 100.357 45.6093 98.8739 44.1519Z" fill="white"/>
<path d="M47.3595 39.293C47.0625 38.9738 46.5288 39.2044 46.5389 39.6419C46.6144 43.1854 43.4575 46.0346 43.4575 46.0346C43.8603 39.0715 40.0942 27.4354 33.433 23.3154C33.0605 23.0853 32.6074 23.4604 32.7433 23.8743C35.1751 31.2423 20 38.2291 20 50.5001C20 56.8812 23.7812 62.6532 27.6228 66.8769C28.0508 67.3436 28.8161 66.8854 28.5945 66.2944C28.0256 64.7814 27.6631 63.1556 27.6631 61.4594C27.6631 54.1151 34.9788 49.8501 34.2336 45.4521C34.1681 45.0649 34.6213 44.8137 34.9133 45.074C38.05 47.8553 39.8022 54.6055 39.6058 58.7104C39.6058 58.7104 41.0055 57.1883 41.1616 55.2142C41.1968 54.8124 41.6953 54.685 41.9219 55.0223C43.5632 57.505 43.5632 60.469 43.5632 61.4594C43.5632 63.1556 43.2007 64.7814 42.6368 66.2944C42.4103 66.8854 43.1755 67.3436 43.6035 66.8769C47.4451 62.6532 51.2263 56.8812 51.2263 50.5001C51.2263 48.7948 51.2263 43.4603 47.3595 39.293Z" fill="white"/>
<path d="M82.7514 29.6255C82.9141 29.6785 83.0768 29.7053 83.2395 29.7053C83.9008 29.7053 84.5201 29.2828 84.7405 28.6204L85.764 25.4819C86.0369 24.6573 85.5855 23.7646 84.7615 23.4927C83.9375 23.224 83.0453 23.6733 82.7724 24.5004L81.7437 27.6363C81.4708 28.464 81.9221 29.3568 82.7514 29.6255Z" fill="white"/>
<path d="M75.9052 28.1328C76.0614 28.8742 76.7174 29.386 77.4463 29.386C77.5556 29.386 77.665 29.374 77.7743 29.3501C78.6281 29.1699 79.1696 28.3364 78.9925 27.4852L78.3105 24.2552C78.1335 23.4009 77.3005 22.8542 76.4467 23.0343C75.5929 23.2145 75.0462 24.0511 75.2284 24.9023L75.9052 28.1328Z" fill="white"/>
<path d="M88.0967 32.8795C88.4721 32.8795 88.8474 32.7467 89.1488 32.4776L91.6125 30.2762C92.2575 29.6936 92.3104 28.6975 91.7288 28.0504C91.1525 27.4033 90.1533 27.3473 89.503 27.9262L87.0446 30.1282C86.3943 30.7102 86.3414 31.7063 86.923 32.3566C87.2349 32.7024 87.6632 32.8795 88.0967 32.8795Z" fill="white"/>
</svg>
