<svg width="285" height="200" viewBox="0 0 285 200" fill="none" xmlns="http://www.w3.org/2000/svg">
<path d="M163.705 0.0960062C165.44 -0.399537 167.217 1.09787 167.153 2.87536C167.25 6.72121 167.25 10.5671 167.185 14.4129C167.25 15.8241 165.935 17.0414 164.556 17.0414C163.091 17.1923 161.562 15.9103 161.691 14.4129C161.659 10.5671 161.723 6.72121 161.691 2.87536C161.594 1.61496 162.51 0.429959 163.705 0.0960062Z" fill="#F1F3F5"/>
<path d="M140.005 8.61725C141.05 8.27253 142.235 8.52028 142.935 9.3821C144.928 11.5474 147.244 13.4111 149.173 15.6626C150.175 16.923 151.974 17.8387 151.974 19.6377C152.103 21.189 150.638 22.5355 149.108 22.417C148.009 22.4817 147.212 21.6522 146.512 20.9197C144.002 18.2911 141.384 15.7595 138.906 13.0987C137.592 11.7629 138.174 9.16666 140.005 8.61725Z" fill="#F1F3F5"/>
<path d="M187.007 8.58483C187.955 8.27243 189.075 8.48787 189.818 9.16655C190.852 10.2977 190.885 12.2152 189.754 13.2817C187.373 15.7271 184.863 18.054 182.579 20.6179C181.814 21.4366 180.899 22.3846 179.671 22.4169C178.518 22.5031 177.537 21.6521 176.988 20.7041C176.557 19.573 176.837 18.2372 177.785 17.4723C180.252 15.0915 182.579 12.5815 184.992 10.1684C185.596 9.58669 186.21 8.95111 187.007 8.58483Z" fill="#F1F3F5"/>
<path d="M158.782 25.3796C160.591 24.5824 162.638 24.8625 164.556 24.7978C166.602 24.7978 168.8 24.647 170.696 25.6812C172.624 26.7477 174.273 28.5252 174.844 30.6905C175.705 33.7715 176.136 36.9494 176.987 40.0627C170.965 40.2243 164.954 40.0951 158.965 40.1274C156.551 40.0627 154.171 40.2459 151.758 40.0089C152.523 37.1002 153.072 34.1378 153.783 31.2076C154.386 28.6114 156.347 26.4137 158.782 25.3796Z" fill="#F1F3F5"/>
<path d="M181.415 69.623C179.67 70.1185 178.269 71.7667 178.119 73.5334C178.119 84.4031 178.172 95.2512 178.119 106.089C178.022 108.469 180.219 110.699 182.6 110.602C198.479 110.581 214.39 110.602 230.269 110.602C231.551 110.581 232.865 110.699 234.147 110.548C235.795 110.301 236.991 108.652 237.024 107.069C237.175 105.227 235.828 103.794 235.041 102.297C230.334 94.1739 225.54 86.1159 220.929 77.9287C219.981 76.3451 219.001 74.6969 217.6 73.3826C215.037 70.9372 211.492 69.4721 207.916 69.4721C200.343 69.4398 192.802 69.4398 185.261 69.4398C183.979 69.4721 182.665 69.289 181.415 69.623ZM72.7942 66.3589C72.6434 67.9748 72.7941 69.623 72.7618 71.2389C72.7618 76.496 72.708 81.753 72.7942 86.9993C65.9858 87.1286 59.1773 87.0963 52.369 87.0316C52.3044 93.6245 52.369 100.228 52.369 106.853C59.145 106.853 65.9534 106.821 72.7618 106.853C72.7618 113.694 72.708 120.535 72.7942 127.375C79.3655 127.214 85.9259 127.278 92.4865 127.311C92.5188 120.47 92.4003 113.629 92.5511 106.789C99.3271 106.886 106.146 106.821 112.955 106.821C112.858 100.228 112.922 93.6568 112.955 87.0639C106.114 87.0963 99.3056 87.0316 92.4865 87.0963C92.4865 80.191 92.465 73.2857 92.4865 66.4235C85.9259 66.445 79.3655 66.5097 72.7942 66.3589ZM9.86004 49.6504C12.2085 47.1512 15.4834 45.3198 18.963 45.3521C77.2216 45.3198 135.513 45.3198 193.782 45.3521C197.197 45.3844 200.623 45.2552 204.07 45.406C213.388 46.0524 221.942 51.6434 227.102 59.3028C229.17 62.5992 231.282 65.8956 233.146 69.3537C236.905 75.7634 240.751 82.1408 244.468 88.5937C247.225 93.0212 249.692 97.5996 252.353 102.06C253.818 104.44 254.885 107.09 256.684 109.234C259.711 111.367 262.921 113.263 265.97 115.396C268.717 117.292 271.776 118.973 273.845 121.666C276.225 124.801 277.669 128.711 277.669 132.719C277.755 139.645 277.701 146.605 277.701 153.542C281.181 153.908 283.96 156.989 284.294 160.447C284.477 162.882 284.348 165.392 284.38 167.859C284.51 171.22 282.398 174.43 279.468 175.949C277.755 176.843 275.838 176.779 273.974 176.747C267.952 176.693 261.973 176.843 255.951 176.693C256.016 172.384 254.82 168.075 252.967 164.229C251.19 160.997 249.143 157.787 246.213 155.492C238.855 148.867 227.802 146.788 218.516 150.116C207.431 153.79 199.341 164.961 199.61 176.693C192.285 176.843 184.992 176.66 177.688 176.714C170.233 176.779 162.821 176.628 155.334 176.747C133.681 176.66 112.039 176.843 90.3536 176.693C90.4183 170.585 88.2206 164.595 84.6117 159.704C81.1645 155.374 76.6399 151.743 71.2643 150.095C65.7056 148.102 59.5115 148.048 53.8881 149.847C42.3829 153.176 33.7647 164.66 33.9801 176.66C25.5882 176.876 17.1854 176.693 8.79351 176.747C3.93503 176.897 -0.190868 172.287 0.0569034 167.525C0.240039 164.196 -0.610961 160.598 1.06958 157.506C2.16839 155.309 4.38756 153.844 6.7791 153.424C6.74678 121.666 6.80064 89.8756 6.7791 58.1178C6.71446 55.026 7.87787 51.945 9.86004 49.6504Z" fill="white"/>
<path d="M60.5241 166.76C55.9996 167.439 52.4015 171.554 52.0568 176.079C51.7552 179.86 53.7696 183.716 57.0337 185.666C58.9943 186.884 61.4074 187.25 63.6696 186.981C68.7651 186.302 72.8912 181.206 72.3095 176.046C71.9432 172.534 69.7669 169.141 66.5351 167.654C64.7038 166.706 62.5386 166.426 60.5241 166.76ZM58.8758 153.941C64.4561 153.057 70.2949 154.458 74.9595 157.571C78.3852 159.887 81.1968 163.162 82.9959 166.889C85.6244 172.47 86.0768 179.192 83.7607 184.998C82.3172 189.06 79.6348 192.593 76.2198 195.189C68.3989 201.513 56.1827 201.631 48.3078 195.372C44.9468 192.992 42.3828 189.512 40.7884 185.752C37.8259 178.793 38.7202 170.423 42.8676 164.142C45.6147 160.2 49.4389 156.871 53.985 155.223C55.6009 154.673 57.2168 154.156 58.8758 153.941Z" fill="white"/>
<path d="M226.122 166.728C221.759 167.471 218.085 171.285 217.687 175.745C216.868 181.54 222.125 187.347 227.953 187.034C233.479 187.131 238.37 181.874 237.971 176.413C237.875 173.633 236.506 171.037 234.514 169.206C232.284 167.159 229.116 166.211 226.122 166.728ZM224.161 153.973C229.052 153.208 234.115 154.027 238.489 156.354C242.033 158.185 245.028 161.051 247.225 164.379C250.823 170.121 251.987 177.511 249.757 184.018C247.344 191.893 240.255 198.152 232.1 199.563C227.07 200.533 221.662 199.8 217.116 197.419C211.923 194.586 207.55 189.878 205.847 184.137C204.221 179.558 204.382 174.484 205.783 169.874C207.248 165.026 210.512 160.781 214.638 157.819C217.514 155.891 220.746 154.522 224.161 153.973Z" fill="white"/>
</svg>
