<svg width="120" height="120" viewBox="0 0 120 120" fill="none" xmlns="http://www.w3.org/2000/svg">
<path d="M95.3931 77.9645C95.3931 81.829 92.2584 84.9659 88.3899 84.9659C84.5257 84.9659 81.3867 81.829 81.3867 77.9645C81.3867 74.0972 84.5257 70.9604 88.3899 70.9604C92.2584 70.9604 95.3931 74.0972 95.3931 77.9645Z" fill="white"/>
<path d="M97.9853 84.3884L79.0929 95.4181C78.6123 95.7069 78.8036 96.3792 79.3821 96.3792H98.755C99.4269 96.3792 100.001 95.8021 100.001 95.1325V85.5399C99.9074 84.4863 98.8485 83.9092 97.9853 84.3884Z" fill="white"/>
<path d="M79.4718 81.7046C77.9346 80.4579 75.8286 80.1696 74.0004 80.8418L62.3022 85.3496C61.247 85.7335 60.0962 86.0192 58.9455 86.2124L29.4044 90.4315C27.9628 90.6251 26.8164 91.8718 26.8164 93.4069C26.8164 95.0348 28.1582 96.3796 29.7866 96.3796H66.9051C68.6333 96.3796 70.2617 95.9002 71.7989 95.0348L78.7988 90.8153C82.1597 88.8965 82.5419 84.198 79.4718 81.7046Z" fill="white"/>
<path d="M63.4975 25.2965C66.9687 27.6373 67.8846 32.3469 65.5426 35.816C63.2005 39.2847 58.4956 40.1993 55.0202 37.859C51.5532 35.5186 50.6372 30.8086 52.9792 27.3399C55.3213 23.8712 60.0304 22.9562 63.4975 25.2965Z" fill="white"/>
<path d="M63.3377 70.516L65.1848 70.3313L64.9988 68.4816C64.9988 68.2969 65.0918 68.1122 65.2778 68.1122L66.7572 68.02C66.9432 68.02 67.1292 68.1122 67.1292 68.2969L67.3109 70.1466L69.1581 69.9619C69.3441 69.9619 69.53 70.0544 69.53 70.2391L69.6188 71.7164C69.6188 71.9016 69.53 72.0859 69.344 72.0859L67.4969 72.2706L67.6829 74.1207C67.6829 74.3054 67.5899 74.4901 67.4039 74.4901L65.9245 74.5822C65.7385 74.5822 65.5525 74.4901 65.5525 74.3054L65.3708 72.4553L63.5236 72.64C63.3377 72.64 63.1517 72.5478 63.1517 72.3631L63.0629 70.8854C62.9699 70.7007 63.1517 70.516 63.3377 70.516ZM63.8914 63.8612C64.7241 63.8612 65.6455 63.4918 66.2965 62.8455L67.6829 62.7529L67.8646 64.8799L63.7054 65.2493L63.5236 63.7691C63.7054 63.7691 63.7984 63.8612 63.8914 63.8612ZM45.6863 68.02L42.6387 79.3844C42.085 81.5113 43.2854 83.6353 45.4115 84.1895C45.7793 84.282 46.0582 84.282 46.426 84.282C48.1844 84.282 49.7525 83.1738 50.2175 81.4192L53.451 69.4052C54.1907 66.8192 53.265 64.0459 51.1389 62.3835L47.1657 59.3334L52.8973 52.589C52.8973 52.8659 52.9903 53.1432 52.9903 53.5122C53.2651 55.7317 54.4655 57.8557 56.3126 59.1487L61.3975 62.9376C61.3975 63.1224 61.3045 63.3071 61.3045 63.3996L61.4863 65.5236L59.3644 65.7113C58.257 65.8005 57.513 66.8192 57.606 67.8349L58.4387 76.3368C58.5317 77.4451 59.5504 78.1839 60.5648 78.0918L73.3173 76.891C74.4247 76.7988 75.1644 75.7831 75.0714 74.764L74.243 66.265C74.15 65.1542 73.1313 64.4154 72.1126 64.5075L69.9907 64.6922L69.8048 62.5682C69.7118 61.3648 68.6043 60.5338 67.3997 60.626H67.2179C67.2179 59.5181 66.753 58.502 65.8315 57.7631L60.2859 53.6973C60.0111 53.42 59.7322 53.1432 59.7322 52.7737C58.5317 42.6094 57.7033 41.6833 56.2196 40.7597L51.4179 37.8047C50.4922 37.2502 49.6638 36.6964 39.9589 37.158C37.9258 37.2502 35.9856 37.8969 34.2315 39.0973L27.8532 43.533C26.3738 44.5487 26.006 46.6756 27.1135 48.1533C28.2251 49.7232 30.2582 50.0926 31.8264 48.9844L38.2047 44.5487C38.8514 44.0871 39.5912 43.8098 40.4196 43.8098H41.2523L35.153 50.8315C33.9525 52.2196 33.3988 54.0667 33.5848 55.8238C33.7708 57.4863 34.5992 59.0561 35.8927 60.1644L20.9253 77.7224C19.5389 79.3844 19.7249 81.7882 21.3861 83.2659C22.1258 83.9126 23.0515 84.1895 23.9729 84.1895C25.0846 84.1895 26.192 83.7279 26.9317 82.8043L41.992 65.1542L45.6863 68.02Z" fill="white"/>
</svg>
