<svg width="176" height="200" viewBox="0 0 176 200" fill="none" xmlns="http://www.w3.org/2000/svg">
<path d="M79.4551 12.951C79.0604 13.5913 78.6569 14.2404 78.3148 14.9159C79.3586 16.6 79.3325 18.6175 78.8325 20.4859C78.2624 22.5472 78.4377 24.8542 79.4815 26.7489C81.2446 29.9768 84.6041 31.9241 87.832 33.4328C89.6741 32.5206 91.49 31.547 93.1303 30.3014C95.1478 28.6874 96.7616 26.3979 97.0861 23.7927C97.4107 21.5735 96.2355 19.4859 96.4635 17.2755C96.5337 16.4509 97.0335 15.7316 97.2616 14.9333C96.9809 14.2404 96.5334 13.6176 96.1387 12.9948C94.8931 13.0738 93.63 13.1702 92.4108 12.872C90.6389 12.451 89.0778 11.4598 87.7796 10.2405C85.6744 12.4246 82.4901 13.4685 79.4551 12.951ZM86.1654 0.267196C88.2794 -0.50471 90.4196 0.591781 92.4546 1.09177C98.6211 2.92504 104.814 4.69695 110.831 7.0039C115.287 8.81963 119.761 10.5826 124.112 12.6527C129.629 15.0123 134.98 17.872 139.602 21.6964C141.664 23.6437 144.05 25.8014 144.199 28.8364C144.348 31.6258 142.164 33.6609 140.567 35.696C137.813 38.731 134.875 41.6168 131.892 44.4764C131.524 44.8272 131.146 45.1693 130.699 45.3974C129.804 45.3009 128.962 44.95 128.111 44.7044C121.77 42.9062 115.287 41.7221 108.77 40.6432C94.4458 38.5556 79.806 38.6344 65.5082 40.8975C60.1574 41.8185 54.7892 42.6869 49.5876 44.1781C48.0262 44.5553 46.5351 45.222 44.9386 45.4238C43.7983 44.7747 42.8772 43.8536 41.9299 42.9852C39.6931 40.801 37.4127 38.6345 35.3689 36.2223C33.7988 34.4592 32.1408 32.5908 31.5444 30.2575C31.1145 28.2401 32.0618 26.205 33.36 24.6875C36.3862 21.0297 40.4124 18.3894 44.5175 16.0298C49.9647 13.2492 55.6138 10.7845 61.2803 8.49508C69.3327 5.06536 77.7885 2.73203 86.1654 0.267196Z" fill="white"/>
<path d="M52.4038 62.9231C52.5003 64.888 52.4738 66.8528 52.5001 68.8177C50.9826 68.9405 49.3161 69.8352 49.0442 71.4579C48.6495 73.914 49.0441 76.4315 49.5178 78.8437C50.1405 81.9225 51.3862 85.0101 53.623 87.2645C54.1931 87.8609 55.0088 88.2382 55.4386 88.9838C56.3772 90.6241 56.9038 92.4398 57.6494 94.1853C58.5704 96.466 59.6404 98.6588 60.7544 100.843C63.7192 106.29 67.7893 111.185 72.8418 114.816C77.1136 117.825 82.2187 119.895 87.4905 119.913C93.1043 120.193 98.6042 118.079 103.13 114.869C111.086 109.15 116.454 100.448 119.516 91.2468C119.91 90.1767 120.183 88.9311 121.156 88.2118C123.139 86.5188 124.586 84.2383 125.384 81.7471C126.445 78.7385 126.893 75.5367 126.822 72.3526C126.77 71.5018 126.7 70.5106 125.981 69.9667C125.103 69.3703 124.016 69.4667 122.989 69.4404C122.989 67.3265 123.095 65.2125 123.121 63.0985C119.937 64.8616 116.481 65.9844 113.025 67.0019C105.665 68.9141 98.0516 69.5896 90.4728 69.8177C82.1661 69.9668 73.8592 69.4141 65.7279 67.7037C61.1315 66.6335 56.5791 65.1599 52.4038 62.9231ZM83.4819 44.9762C97.6569 44.4762 111.849 46.3184 125.533 49.8973C127.244 50.4674 129.033 50.8884 130.673 51.634C131.594 52.6602 131.445 54.1953 131.27 55.4409C131.077 58.0285 130.972 60.5899 130.647 63.1512C130.48 63.8442 131.051 64.3441 131.393 64.8441C133.761 67.8528 134.384 71.879 133.954 75.607C133.489 80.7296 132.217 86.0013 129.059 90.203C128.191 91.5713 126.744 92.5362 126.173 94.0801C125.551 95.6765 125.06 97.2905 124.358 98.8343C120.156 108.202 113.744 116.834 104.893 122.255C99.6917 125.439 93.6043 127.202 87.4905 127.026C80.6749 127.149 74.0084 124.57 68.5437 120.588C65.2543 118.202 62.2016 115.439 59.7631 112.211C55.6843 107.132 52.5529 101.317 50.36 95.2291C50.0179 94.3519 49.6933 93.4309 49.0004 92.7906C44.9917 88.9837 42.7551 83.5891 42.0797 78.1682C41.4393 74.1684 41.3339 69.765 43.4304 66.1336C43.8777 65.2389 44.6934 64.5722 45.1144 63.6687C45.1408 61.3091 44.8427 58.9495 44.7725 56.5899C44.7725 55.1426 44.1936 53.7041 44.6409 52.2831C44.869 51.6164 45.6847 51.4673 46.2637 51.1866C51.5793 49.3007 57.123 48.2569 62.6667 47.1868C69.5349 45.9938 76.5172 45.2482 83.4819 44.9762Z" fill="white"/>
<path d="M51.1316 128.64C53.3947 127.851 55.7367 127.298 58.0174 126.605C58.6138 127.623 59.2366 128.614 59.8156 129.64C61.4997 132.921 63.4908 136.026 65.2276 139.307C66.403 141.552 67.7891 143.657 69.0083 145.877C70.5258 148.657 72.0694 151.473 73.7097 154.201C74.1132 154.973 74.7799 155.719 74.6308 156.64C73.0606 167.604 71.7186 178.595 70.1572 189.533C69.6835 193.016 69.1837 196.498 68.7627 199.98C47.2809 199.928 25.7991 199.98 4.31734 199.98C1.92267 200.077 -0.165117 197.84 0.0103158 195.48C0.606789 187.946 1.17701 180.411 1.92261 172.902C2.79977 165.99 4.03664 158.903 7.51899 152.789C9.86103 148.263 13.4397 144.429 17.6414 141.596C21.9395 138.64 26.7638 136.5 31.7373 134.886C38.1319 132.57 44.623 130.579 51.1316 128.64Z" fill="white"/>
<path d="M128.613 159.973C127.394 160.192 126.174 159.92 124.955 160.025C124.437 160.797 123.964 161.613 123.42 162.359C124.016 163.227 124.587 164.174 124.613 165.245C124.832 167.753 123.49 170.139 123.867 172.657C124.288 175.981 126.253 179.016 128.964 180.955C130.823 182.349 132.815 183.516 134.928 184.49C137.613 183.174 140.297 181.753 142.437 179.639C144.753 177.376 146.165 174.148 145.893 170.885C145.797 168.797 144.753 166.788 145.27 164.701C145.393 163.85 145.972 163.183 146.095 162.332C145.77 161.517 145.297 160.771 144.902 159.973C141.244 160.543 137.393 159.376 134.876 156.613C133.314 158.482 130.999 159.578 128.613 159.973ZM105.385 148.21C109.517 141.026 113.499 133.763 117.648 126.605C127.49 129.316 137.244 132.421 146.867 135.851C151.261 137.447 155.463 139.605 159.2 142.421C166.138 147.394 170.383 155.376 172.173 163.552C173.945 170.885 174.19 178.42 174.883 185.884C175.111 189.086 175.383 192.27 175.603 195.481C175.804 197.717 173.945 200.033 171.603 199.954C150.042 199.98 128.464 199.954 106.903 199.98C104.789 185.533 102.999 171.06 100.991 156.64C100.885 156.017 101.263 155.526 101.535 155.026C102.877 152.815 104.096 150.473 105.385 148.21Z" fill="white"/>
<path d="M77.8416 140.5C79.5082 139.061 80.9992 137 83.3324 136.772C85.5253 136.623 87.6833 136.745 89.8762 136.702C91.3937 136.728 93.0341 136.526 94.3762 137.421C95.8147 138.386 97.0867 139.631 98.3498 140.824C98.9199 141.421 99.6478 142 99.8934 142.842C100.069 143.789 99.3672 144.535 98.8497 145.228C97.3322 147.113 95.8672 149.008 94.4988 150.999C93.7795 151.938 94.1744 153.21 94.2446 154.306C96.4112 169.525 98.3057 184.761 100.437 199.98C92.0339 200.007 83.6044 200.007 75.2012 199.98C77.2187 185.656 79.0783 171.288 81.0169 156.938C81.2449 155.122 81.6396 153.306 81.4729 151.473C79.9993 148.78 77.789 146.596 76.2013 144.008C75.4733 142.596 76.9469 141.394 77.8416 140.5Z" fill="#F1F3F5"/>
</svg>
