<svg width="120" height="120" viewBox="0 0 120 120" fill="none" xmlns="http://www.w3.org/2000/svg">
<path d="M55.9239 63.3233C54.679 57.2703 51.8207 49.3071 45.2839 45.7395C43.2606 44.6343 40.7385 44.6601 38.6945 44.6808H37.3003C35.264 44.6594 32.7335 44.6336 30.7124 45.7395C24.1755 49.3071 21.3177 57.2703 20.0725 63.3233C19.6844 65.2013 20.8938 67.037 22.772 67.4245C24.6597 67.8099 26.4869 66.6016 26.8731 64.7228C27.2952 62.678 28.3199 58.6906 30.3357 55.5356L29.6556 67.8199L25.5337 93.5306C25.1966 95.634 26.6283 97.613 28.7325 97.9501C28.9397 97.9839 29.1451 98 29.3466 98C31.2098 98 32.8485 96.6484 33.1518 94.7517L37.0948 70.1592H38.7065L39.555 94.2767C39.6304 96.4055 41.4747 98.0744 43.5473 97.9964C45.6756 97.922 47.343 96.135 47.2676 94.0056L46.352 68.0197L45.6611 55.5406C47.6775 58.6956 48.7019 62.6794 49.1233 64.7228C49.4604 66.3659 50.9072 67.4962 52.5203 67.4962C52.7516 67.4962 52.9873 67.4725 53.2243 67.4245C55.1023 67.037 56.3121 65.2013 55.9239 63.3233Z" fill="white"/>
<path d="M38.0782 42.9092C42.122 42.9092 45.4011 39.631 45.4011 35.5861C45.4011 31.5411 42.122 28.2638 38.0782 28.2638C34.0337 28.2638 30.7559 31.5411 30.7559 35.5861C30.7559 39.631 34.0337 42.9092 38.0782 42.9092Z" fill="white"/>
<path d="M87.6189 59.6642C87.5649 59.7376 87.5305 59.8185 87.4833 59.8942L87.427 52.1385C89.063 52.7979 90.4944 53.5459 91.6126 54.2151L87.6189 59.6642ZM98.7561 50.7183C98.4518 50.4642 92.1716 45.3022 83.5675 43.8536L80.7587 52.4142L80.0288 47.3609H80.5151C80.8082 47.3609 81.045 47.1211 81.045 46.828V45.1936C81.045 44.8998 80.8067 44.6637 80.5151 44.6637H77.8509C77.5579 44.6637 77.3203 44.8998 77.3203 45.1936V46.828C77.3203 47.1211 77.5579 47.3609 77.8509 47.3609H78.3373L77.6074 52.4142L74.8053 43.8783C72.3839 44.283 69.9363 44.9792 67.4819 46.0412C63.863 47.6082 59.8131 47.0064 56.9061 44.4711C55.4589 43.2098 53.2661 43.359 52.0064 44.8054C50.7458 46.2502 50.8946 48.4438 52.3399 49.7043C57.2111 53.9513 64.2377 55.0147 70.2421 52.4142C70.4744 52.3131 70.7044 52.2419 70.9368 52.1489L70.8281 67.4806L66.4327 78.5526C66.2559 78.9962 66.1629 79.4691 66.1599 79.9465L66.0528 94.1113C66.0355 96.2422 67.7495 97.983 69.8801 97.9986C69.8913 97.9986 69.9011 97.9986 69.9108 97.9986C72.0279 97.9986 73.7516 96.2912 73.7688 94.1696L73.87 80.7274L78.0653 70.1591H79.8871L80.1224 94.1847C80.1472 96.3006 81.8693 97.9986 83.9812 97.9986C83.9939 97.9986 84.0089 97.9986 84.0247 97.9986C86.1545 97.9742 87.864 96.2272 87.8392 94.0962L87.5432 68.2038L87.5102 63.5949C87.7336 63.9419 88.0154 64.2589 88.3683 64.5174C88.9866 64.9708 89.7038 65.1896 90.418 65.1896C91.4859 65.1896 92.5411 64.6965 93.2216 63.7687L99.3286 55.4344C100.41 53.9573 100.159 51.8934 98.7561 50.7183Z" fill="white"/>
<path d="M72.5915 34.149C72.3987 34.8047 72.3027 35.4994 72.3027 36.2128C72.3027 40.2062 75.3891 43.4276 79.1897 43.4276C82.9895 43.4276 86.0564 40.2062 86.0564 36.2128C86.0564 35.4994 85.9604 34.8047 85.7676 34.149C83.7607 35.056 80.8094 35.191 79.1897 35.191C77.5692 35.191 74.5789 35.056 72.5915 34.149Z" fill="white"/>
<path d="M86.2868 31.5512C86.2868 31.5512 82.9072 31.0266 79.1829 31.0266C75.4586 31.0266 72.0781 31.5512 72.0781 31.5512C72.0781 32.8019 75.2586 33.6505 79.1829 33.6505C83.1063 33.6505 86.2868 32.8019 86.2868 31.5512Z" fill="white"/>
<path d="M77.9628 25.9943C77.9628 25.9181 78.0204 25.8546 78.0966 25.8478C78.8249 25.7724 79.0391 25.3583 79.0476 25.3397C79.0722 25.2897 79.1247 25.2559 79.1814 25.2559C79.2381 25.2559 79.2915 25.2889 79.3161 25.3405C79.3237 25.3575 79.5345 25.7724 80.2662 25.8478C80.3424 25.8546 80.4009 25.9181 80.4009 25.9943V26.6354C80.4009 27.5356 79.3669 28.0996 79.25 28.1605C79.2271 28.1715 79.2043 28.1775 79.1814 28.1775C79.1585 28.1775 79.1357 28.1715 79.1154 28.1614C78.996 28.0995 77.9628 27.5356 77.9628 26.6354V25.9943ZM71.7207 30.0397L71.8367 30.021C71.9909 30.0016 75.3859 29.4808 79.1865 29.4808C82.9863 29.4808 86.3821 30.0016 86.5168 30.021L86.6514 30.0397C86.8835 29.6154 87.2882 28.7474 87.5389 27.8794C87.7134 27.3586 87.3856 26.8183 86.8445 26.7031C82.8711 25.7961 80.6905 24.3878 79.7463 23.6164C79.4177 23.3462 78.9358 23.3462 78.6081 23.6164C77.6817 24.3878 75.5019 25.7961 71.509 26.7031C71.0068 26.8183 70.6596 27.3205 70.8146 27.8218C71.0653 28.7093 71.4895 29.5968 71.7207 30.0397Z" fill="white"/>
<path d="M58.8282 41.0793L52.1485 37.3051C51.8931 37.1587 51.582 37.1229 51.2995 37.2014C51.0139 37.2807 50.7699 37.4705 50.6236 37.7289L48.2514 41.9278C47.9486 42.466 48.139 43.1483 48.677 43.4524L55.3542 47.2275C55.5242 47.3235 55.7141 47.3723 55.9054 47.3723C56.0068 47.3723 56.1074 47.3586 56.205 47.3319C56.4909 47.2519 56.7348 47.0621 56.8812 46.8036L59.2528 42.6047C59.5554 42.0665 59.3656 41.3835 58.8282 41.0793Z" fill="#F3F3F3"/>
</svg>
