<svg width="140" height="90" viewBox="0 0 140 90" fill="none" xmlns="http://www.w3.org/2000/svg">
  <!-- Shield and Star -->
  <path d="M 15,48 Q 25,51 35,48 Q 36,60 25,72 Q 14,60 15,48 Z" stroke="white" stroke-width="1.5" stroke-linejoin="round"/>
  <path d="M 25,53 L 26.5,56.5 L 30,56.5 L 27.2,58.7 L 28.3,62 L 25,60 L 21.7,62 L 22.8,58.7 L 20,56.5 L 23.5,56.5 Z" fill="white"/>
  <!-- Police Car Body -->
  <path d="M 50,52 H 55 L 68,38 H 92 L 104,50 H 122 V 65 H 112 A 8,8 0 0 0 96,65 H 68 A 8,8 0 0 0 52,65 H 50 Z" stroke="white" stroke-width="1.2" stroke-linejoin="round"/>
  <!-- Windows -->
  <path d="M 70,41 H 79 V 50 H 67 Z M 82,41 H 91 L 99,50 H 82 Z" stroke="white" stroke-width="1.2" stroke-linejoin="round"/>
  <!-- Siren -->
  <path d="M 77,38 A 3,3 0 0 1 83,38 Z" fill="white"/>
  <path d="M 73,34 L 75,32 M 80,33 V 30 M 87,34 L 85,32" stroke="white" stroke-width="1"/>
  <!-- Wheels -->
  <circle cx="60" cy="65" r="7" stroke="white" stroke-width="1.2" fill="none"/>
  <circle cx="60" cy="65" r="2.5" stroke="white" stroke-width="1.2" fill="none"/>
  <circle cx="104" cy="65" r="7" stroke="white" stroke-width="1.2" fill="none"/>
  <circle cx="104" cy="65" r="2.5" stroke="white" stroke-width="1.2" fill="none"/>
</svg>
